<svg xmlns="http://www.w3.org/2000/svg" xmlns:xlink="http://www.w3.org/1999/xlink" width="100" zoomAndPan="magnify" viewBox="0 0 75 37.5" height="50" preserveAspectRatio="xMidYMid meet" version="1.2"><defs><clipPath id="8442b43c8e"><path d="M 0.492188 0 L 74.503906 0 L 74.503906 37.007812 L 0.492188 37.007812 Z M 0.492188 0 "/></clipPath><clipPath id="fa9bedd0a8"><path d="M 41 2.375 L 61.269531 2.375 L 61.269531 26.289062 L 41 26.289062 Z M 41 2.375 "/></clipPath><clipPath id="e16b0b6a9f"><path d="M 41.246094 11.695312 L 54.199219 11.695312 L 54.199219 23.652344 L 41.246094 23.652344 Z M 41.246094 11.695312 "/></clipPath></defs><g id="bdcbff3d13"><g clip-rule="nonzero" clip-path="url(#8442b43c8e)"><path style=" stroke:none;fill-rule:nonzero;fill:#ffffff;fill-opacity:1;" d="M 0.492188 0 L 74.507812 0 L 74.507812 37.007812 L 0.492188 37.007812 Z M 0.492188 0 "/><path style=" stroke:none;fill-rule:nonzero;fill:#ffffff;fill-opacity:1;" d="M 0.492188 0 L 74.507812 0 L 74.507812 37.007812 L 0.492188 37.007812 Z M 0.492188 0 "/><path style=" stroke:none;fill-rule:nonzero;fill:#f6f8fa;fill-opacity:1;" d="M 0.492188 0 L 74.507812 0 L 74.507812 37.007812 L 0.492188 37.007812 Z M 0.492188 0 "/></g><g clip-rule="nonzero" clip-path="url(#fa9bedd0a8)"><path style=" stroke:none;fill-rule:nonzero;fill:#014ca7;fill-opacity:1;" d="M 60.351562 24.449219 C 60.332031 24.449219 58.121094 24.429688 55.878906 22.691406 C 52.972656 20.449219 51.367188 16.320312 51.210938 10.714844 L 54.859375 10.714844 C 55.230469 10.714844 55.566406 10.492188 55.707031 10.152344 C 55.847656 9.808594 55.769531 9.414062 55.507812 9.152344 L 49.101562 2.746094 C 48.742188 2.386719 48.164062 2.386719 47.804688 2.746094 L 41.398438 9.152344 C 41.136719 9.414062 41.054688 9.808594 41.199219 10.152344 C 41.339844 10.492188 41.675781 10.714844 42.042969 10.714844 L 45.722656 10.714844 C 46.210938 25.835938 58.882812 26.277344 60.351562 26.277344 C 60.859375 26.277344 61.269531 25.867188 61.269531 25.363281 C 61.269531 24.859375 60.859375 24.449219 60.351562 24.449219 Z M 60.351562 24.449219 "/></g><g style="fill:#004aad;fill-opacity:1;"><g transform="translate(6.971812, 26.078952)"><path style="stroke:none" d="M 0.671875 -6.875 C 0.671875 -7.394531 0.78125 -7.875 1 -8.3125 C 1.21875 -8.75 1.523438 -9.125 1.921875 -9.4375 C 2.316406 -9.757812 2.796875 -10.007812 3.359375 -10.1875 C 3.921875 -10.363281 4.539062 -10.453125 5.21875 -10.453125 C 5.625 -10.453125 5.992188 -10.425781 6.328125 -10.375 C 6.671875 -10.332031 6.972656 -10.273438 7.234375 -10.203125 C 7.503906 -10.128906 7.738281 -10.050781 7.9375 -9.96875 C 8.132812 -9.894531 8.304688 -9.828125 8.453125 -9.765625 C 8.648438 -9.671875 8.800781 -9.566406 8.90625 -9.453125 C 9.019531 -9.347656 9.097656 -9.226562 9.140625 -9.09375 C 9.179688 -8.957031 9.203125 -8.800781 9.203125 -8.625 C 9.203125 -8.445312 9.203125 -8.242188 9.203125 -8.015625 C 9.203125 -7.390625 8.96875 -7.078125 8.5 -7.078125 C 8.320312 -7.078125 8.179688 -7.128906 8.078125 -7.234375 C 7.972656 -7.347656 7.878906 -7.488281 7.796875 -7.65625 C 7.710938 -7.820312 7.625 -8 7.53125 -8.1875 C 7.445312 -8.382812 7.332031 -8.566406 7.1875 -8.734375 C 7.039062 -8.898438 6.84375 -9.035156 6.59375 -9.140625 C 6.351562 -9.253906 6.039062 -9.3125 5.65625 -9.3125 C 5.101562 -9.3125 4.691406 -9.203125 4.421875 -8.984375 C 4.160156 -8.765625 4.03125 -8.503906 4.03125 -8.203125 C 4.03125 -7.941406 4.113281 -7.726562 4.28125 -7.5625 C 4.445312 -7.394531 4.664062 -7.253906 4.9375 -7.140625 C 5.207031 -7.023438 5.515625 -6.921875 5.859375 -6.828125 C 6.210938 -6.742188 6.570312 -6.648438 6.9375 -6.546875 C 7.300781 -6.441406 7.65625 -6.316406 8 -6.171875 C 8.351562 -6.035156 8.664062 -5.859375 8.9375 -5.640625 C 9.207031 -5.429688 9.425781 -5.164062 9.59375 -4.84375 C 9.757812 -4.519531 9.84375 -4.128906 9.84375 -3.671875 C 9.84375 -3.015625 9.691406 -2.441406 9.390625 -1.953125 C 9.097656 -1.460938 8.710938 -1.054688 8.234375 -0.734375 C 7.765625 -0.410156 7.238281 -0.171875 6.65625 -0.015625 C 6.070312 0.140625 5.488281 0.21875 4.90625 0.21875 C 4.34375 0.21875 3.785156 0.148438 3.234375 0.015625 C 2.679688 -0.117188 2.1875 -0.296875 1.75 -0.515625 C 1.320312 -0.742188 0.972656 -1.007812 0.703125 -1.3125 C 0.429688 -1.613281 0.296875 -1.929688 0.296875 -2.265625 C 0.296875 -2.515625 0.378906 -2.734375 0.546875 -2.921875 C 0.710938 -3.117188 0.925781 -3.21875 1.1875 -3.21875 C 1.40625 -3.21875 1.582031 -3.164062 1.71875 -3.0625 C 1.863281 -2.957031 1.992188 -2.828125 2.109375 -2.671875 C 2.234375 -2.523438 2.359375 -2.363281 2.484375 -2.1875 C 2.609375 -2.007812 2.765625 -1.84375 2.953125 -1.6875 C 3.140625 -1.53125 3.367188 -1.398438 3.640625 -1.296875 C 3.921875 -1.191406 4.273438 -1.140625 4.703125 -1.140625 C 4.992188 -1.140625 5.25 -1.179688 5.46875 -1.265625 C 5.695312 -1.347656 5.882812 -1.445312 6.03125 -1.5625 C 6.1875 -1.6875 6.300781 -1.820312 6.375 -1.96875 C 6.445312 -2.125 6.484375 -2.28125 6.484375 -2.4375 C 6.484375 -2.675781 6.398438 -2.867188 6.234375 -3.015625 C 6.066406 -3.171875 5.847656 -3.296875 5.578125 -3.390625 C 5.304688 -3.484375 4.992188 -3.570312 4.640625 -3.65625 C 4.296875 -3.738281 3.941406 -3.828125 3.578125 -3.921875 C 3.210938 -4.015625 2.851562 -4.128906 2.5 -4.265625 C 2.15625 -4.398438 1.847656 -4.578125 1.578125 -4.796875 C 1.304688 -5.023438 1.085938 -5.304688 0.921875 -5.640625 C 0.753906 -5.984375 0.671875 -6.394531 0.671875 -6.875 Z M 0.671875 -6.875 "/></g></g><g style="fill:#004aad;fill-opacity:1;"><g transform="translate(17.04412, 26.078952)"><path style="stroke:none" d="M 0.234375 -3.390625 C 0.234375 -3.960938 0.34375 -4.46875 0.5625 -4.90625 C 0.78125 -5.351562 1.078125 -5.722656 1.453125 -6.015625 C 1.828125 -6.316406 2.253906 -6.546875 2.734375 -6.703125 C 3.222656 -6.859375 3.734375 -6.9375 4.265625 -6.9375 C 4.765625 -6.9375 5.222656 -6.890625 5.640625 -6.796875 C 6.054688 -6.710938 6.410156 -6.59375 6.703125 -6.4375 C 6.992188 -6.28125 7.21875 -6.097656 7.375 -5.890625 C 7.539062 -5.691406 7.625 -5.472656 7.625 -5.234375 C 7.625 -4.929688 7.507812 -4.710938 7.28125 -4.578125 C 7.0625 -4.441406 6.820312 -4.375 6.5625 -4.375 C 6.269531 -4.375 6.039062 -4.441406 5.875 -4.578125 C 5.71875 -4.722656 5.578125 -4.878906 5.453125 -5.046875 C 5.335938 -5.222656 5.222656 -5.378906 5.109375 -5.515625 C 4.992188 -5.660156 4.835938 -5.734375 4.640625 -5.734375 C 4.429688 -5.734375 4.253906 -5.671875 4.109375 -5.546875 C 3.960938 -5.421875 3.835938 -5.25 3.734375 -5.03125 C 3.640625 -4.8125 3.566406 -4.554688 3.515625 -4.265625 C 3.472656 -3.972656 3.453125 -3.671875 3.453125 -3.359375 C 3.453125 -2.992188 3.5 -2.679688 3.59375 -2.421875 C 3.695312 -2.160156 3.820312 -1.945312 3.96875 -1.78125 C 4.125 -1.613281 4.300781 -1.488281 4.5 -1.40625 C 4.695312 -1.320312 4.890625 -1.28125 5.078125 -1.28125 C 5.359375 -1.28125 5.601562 -1.332031 5.8125 -1.4375 C 6.019531 -1.539062 6.207031 -1.65625 6.375 -1.78125 C 6.539062 -1.90625 6.691406 -2.019531 6.828125 -2.125 C 6.972656 -2.238281 7.117188 -2.296875 7.265625 -2.296875 C 7.398438 -2.296875 7.515625 -2.238281 7.609375 -2.125 C 7.710938 -2.007812 7.765625 -1.882812 7.765625 -1.75 C 7.765625 -1.5 7.65625 -1.257812 7.4375 -1.03125 C 7.21875 -0.800781 6.9375 -0.597656 6.59375 -0.421875 C 6.257812 -0.253906 5.890625 -0.117188 5.484375 -0.015625 C 5.085938 0.0859375 4.707031 0.140625 4.34375 0.140625 C 3.820312 0.140625 3.316406 0.0625 2.828125 -0.09375 C 2.335938 -0.25 1.898438 -0.472656 1.515625 -0.765625 C 1.128906 -1.066406 0.816406 -1.4375 0.578125 -1.875 C 0.347656 -2.3125 0.234375 -2.816406 0.234375 -3.390625 Z M 0.234375 -3.390625 "/></g></g><g style="fill:#004aad;fill-opacity:1;"><g transform="translate(24.738244, 26.078952)"><path style="stroke:none" d="M 4.859375 -3.4375 C 4.671875 -3.4375 4.488281 -3.40625 4.3125 -3.34375 C 4.132812 -3.289062 3.972656 -3.207031 3.828125 -3.09375 C 3.691406 -2.988281 3.582031 -2.847656 3.5 -2.671875 C 3.414062 -2.503906 3.375 -2.300781 3.375 -2.0625 C 3.375 -1.8125 3.425781 -1.613281 3.53125 -1.46875 C 3.644531 -1.332031 3.796875 -1.265625 3.984375 -1.265625 C 4.078125 -1.265625 4.175781 -1.285156 4.28125 -1.328125 C 4.382812 -1.378906 4.476562 -1.484375 4.5625 -1.640625 C 4.65625 -1.796875 4.726562 -2.015625 4.78125 -2.296875 C 4.832031 -2.585938 4.859375 -2.96875 4.859375 -3.4375 Z M 0.859375 -5.59375 C 0.859375 -6.007812 1.132812 -6.335938 1.6875 -6.578125 C 2.25 -6.816406 3.113281 -6.9375 4.28125 -6.9375 C 4.675781 -6.9375 5.085938 -6.90625 5.515625 -6.84375 C 5.953125 -6.789062 6.347656 -6.671875 6.703125 -6.484375 C 7.066406 -6.296875 7.363281 -6.03125 7.59375 -5.6875 C 7.820312 -5.34375 7.9375 -4.882812 7.9375 -4.3125 L 7.9375 -1.765625 C 7.9375 -1.554688 7.972656 -1.398438 8.046875 -1.296875 C 8.128906 -1.203125 8.210938 -1.125 8.296875 -1.0625 C 8.390625 -1.007812 8.472656 -0.941406 8.546875 -0.859375 C 8.617188 -0.785156 8.65625 -0.671875 8.65625 -0.515625 C 8.65625 -0.171875 8.4375 0 8 0 L 5.796875 0 C 5.484375 0 5.273438 -0.0507812 5.171875 -0.15625 C 5.078125 -0.269531 5.007812 -0.460938 4.96875 -0.734375 C 4.851562 -0.554688 4.71875 -0.410156 4.5625 -0.296875 C 4.40625 -0.191406 4.234375 -0.101562 4.046875 -0.03125 C 3.859375 0.03125 3.660156 0.0703125 3.453125 0.09375 C 3.253906 0.125 3.0625 0.140625 2.875 0.140625 C 2.425781 0.140625 2.039062 0.078125 1.71875 -0.046875 C 1.40625 -0.179688 1.140625 -0.351562 0.921875 -0.5625 C 0.703125 -0.769531 0.539062 -1.003906 0.4375 -1.265625 C 0.34375 -1.535156 0.296875 -1.800781 0.296875 -2.0625 C 0.296875 -2.570312 0.429688 -2.984375 0.703125 -3.296875 C 0.972656 -3.617188 1.320312 -3.863281 1.75 -4.03125 C 2.1875 -4.207031 2.671875 -4.320312 3.203125 -4.375 C 3.742188 -4.4375 4.273438 -4.46875 4.796875 -4.46875 C 4.785156 -4.738281 4.765625 -4.957031 4.734375 -5.125 C 4.703125 -5.300781 4.648438 -5.441406 4.578125 -5.546875 C 4.515625 -5.648438 4.429688 -5.71875 4.328125 -5.75 C 4.234375 -5.789062 4.113281 -5.8125 3.96875 -5.8125 C 3.757812 -5.8125 3.597656 -5.757812 3.484375 -5.65625 C 3.367188 -5.550781 3.25 -5.429688 3.125 -5.296875 C 3.007812 -5.160156 2.867188 -5.035156 2.703125 -4.921875 C 2.546875 -4.816406 2.328125 -4.765625 2.046875 -4.765625 C 1.660156 -4.765625 1.363281 -4.84375 1.15625 -5 C 0.957031 -5.15625 0.859375 -5.351562 0.859375 -5.59375 Z M 0.859375 -5.59375 "/></g></g><g style="fill:#004aad;fill-opacity:1;"><g transform="translate(33.411617, 26.078952)"><path style="stroke:none" d="M 0.15625 -9.5625 C 0.15625 -9.71875 0.226562 -9.851562 0.375 -9.96875 C 0.53125 -10.09375 0.78125 -10.175781 1.125 -10.21875 C 1.6875 -10.289062 2.15625 -10.378906 2.53125 -10.484375 C 2.90625 -10.585938 3.175781 -10.632812 3.34375 -10.625 C 3.394531 -10.625 3.457031 -10.613281 3.53125 -10.59375 C 3.613281 -10.582031 3.691406 -10.535156 3.765625 -10.453125 C 3.847656 -10.367188 3.914062 -10.242188 3.96875 -10.078125 C 4.019531 -9.921875 4.046875 -9.695312 4.046875 -9.40625 L 4.046875 -1.59375 C 4.046875 -1.425781 4.082031 -1.300781 4.15625 -1.21875 C 4.226562 -1.144531 4.3125 -1.078125 4.40625 -1.015625 C 4.5 -0.960938 4.582031 -0.90625 4.65625 -0.84375 C 4.726562 -0.78125 4.765625 -0.679688 4.765625 -0.546875 C 4.765625 -0.398438 4.691406 -0.269531 4.546875 -0.15625 C 4.410156 -0.0507812 4.25 0 4.0625 0 L 0.9375 0 C 0.75 0 0.582031 -0.0507812 0.4375 -0.15625 C 0.300781 -0.269531 0.234375 -0.398438 0.234375 -0.546875 C 0.234375 -0.679688 0.269531 -0.78125 0.34375 -0.84375 C 0.425781 -0.90625 0.507812 -0.960938 0.59375 -1.015625 C 0.6875 -1.078125 0.769531 -1.144531 0.84375 -1.21875 C 0.925781 -1.300781 0.96875 -1.425781 0.96875 -1.59375 L 0.96875 -8.46875 C 0.96875 -8.644531 0.925781 -8.773438 0.84375 -8.859375 C 0.757812 -8.941406 0.664062 -9.003906 0.5625 -9.046875 C 0.457031 -9.097656 0.363281 -9.15625 0.28125 -9.21875 C 0.195312 -9.289062 0.15625 -9.40625 0.15625 -9.5625 Z M 0.15625 -9.5625 "/></g></g><g style="fill:#004aad;fill-opacity:1;"><g transform="translate(38.167986, 26.078952)"><path style="stroke:none" d="M 4.59375 -5.734375 C 4.414062 -5.734375 4.253906 -5.675781 4.109375 -5.5625 C 3.972656 -5.445312 3.851562 -5.289062 3.75 -5.09375 C 3.65625 -4.894531 3.582031 -4.664062 3.53125 -4.40625 C 3.476562 -4.144531 3.445312 -3.867188 3.4375 -3.578125 C 3.644531 -3.585938 3.847656 -3.625 4.046875 -3.6875 C 4.253906 -3.757812 4.4375 -3.851562 4.59375 -3.96875 C 4.757812 -4.09375 4.890625 -4.238281 4.984375 -4.40625 C 5.078125 -4.582031 5.125 -4.78125 5.125 -5 C 5.125 -5.15625 5.085938 -5.316406 5.015625 -5.484375 C 4.941406 -5.648438 4.800781 -5.734375 4.59375 -5.734375 Z M 0.234375 -3.296875 C 0.234375 -3.898438 0.363281 -4.425781 0.625 -4.875 C 0.894531 -5.320312 1.242188 -5.695312 1.671875 -6 C 2.097656 -6.3125 2.578125 -6.546875 3.109375 -6.703125 C 3.640625 -6.859375 4.171875 -6.9375 4.703125 -6.9375 C 5.234375 -6.9375 5.703125 -6.875 6.109375 -6.75 C 6.515625 -6.632812 6.851562 -6.476562 7.125 -6.28125 C 7.394531 -6.082031 7.597656 -5.859375 7.734375 -5.609375 C 7.878906 -5.367188 7.953125 -5.125 7.953125 -4.875 C 7.953125 -4.457031 7.828125 -4.109375 7.578125 -3.828125 C 7.328125 -3.546875 6.992188 -3.3125 6.578125 -3.125 C 6.171875 -2.945312 5.703125 -2.800781 5.171875 -2.6875 C 4.648438 -2.570312 4.113281 -2.46875 3.5625 -2.375 C 3.664062 -2.050781 3.847656 -1.769531 4.109375 -1.53125 C 4.367188 -1.289062 4.703125 -1.171875 5.109375 -1.171875 C 5.441406 -1.171875 5.722656 -1.226562 5.953125 -1.34375 C 6.191406 -1.46875 6.398438 -1.597656 6.578125 -1.734375 C 6.753906 -1.867188 6.910156 -1.992188 7.046875 -2.109375 C 7.191406 -2.234375 7.347656 -2.296875 7.515625 -2.296875 C 7.640625 -2.296875 7.757812 -2.253906 7.875 -2.171875 C 8 -2.097656 8.0625 -1.976562 8.0625 -1.8125 C 8.0625 -1.570312 7.945312 -1.332031 7.71875 -1.09375 C 7.488281 -0.863281 7.195312 -0.65625 6.84375 -0.46875 C 6.488281 -0.289062 6.09375 -0.144531 5.65625 -0.03125 C 5.21875 0.0820312 4.785156 0.140625 4.359375 0.140625 C 3.847656 0.140625 3.34375 0.0664062 2.84375 -0.078125 C 2.351562 -0.222656 1.914062 -0.4375 1.53125 -0.71875 C 1.144531 -1.007812 0.832031 -1.367188 0.59375 -1.796875 C 0.351562 -2.234375 0.234375 -2.734375 0.234375 -3.296875 Z M 0.234375 -3.296875 "/></g></g><g style="fill:#ecbd39;fill-opacity:1;"><g transform="translate(46.423152, 26.078952)"><path style="stroke:none" d="M 4.28125 -10.234375 C 4.476562 -10.234375 4.632812 -10.21875 4.75 -10.1875 C 4.863281 -10.15625 4.945312 -10.109375 5 -10.046875 C 5.0625 -9.992188 5.097656 -9.929688 5.109375 -9.859375 C 5.128906 -9.796875 5.140625 -9.726562 5.140625 -9.65625 C 5.140625 -9.488281 5.097656 -9.378906 5.015625 -9.328125 C 4.941406 -9.273438 4.851562 -9.226562 4.75 -9.1875 C 4.65625 -9.144531 4.5625 -9.085938 4.46875 -9.015625 C 4.382812 -8.953125 4.335938 -8.820312 4.328125 -8.625 C 4.328125 -8.5 4.316406 -8.316406 4.296875 -8.078125 C 4.273438 -7.847656 4.253906 -7.585938 4.234375 -7.296875 C 4.210938 -7.015625 4.191406 -6.71875 4.171875 -6.40625 C 4.160156 -6.09375 4.144531 -5.796875 4.125 -5.515625 C 4.101562 -5.242188 4.085938 -5 4.078125 -4.78125 C 4.066406 -4.5625 4.0625 -4.398438 4.0625 -4.296875 C 4.0625 -3.878906 4.085938 -3.472656 4.140625 -3.078125 C 4.191406 -2.691406 4.289062 -2.347656 4.4375 -2.046875 C 4.59375 -1.742188 4.804688 -1.5 5.078125 -1.3125 C 5.359375 -1.125 5.71875 -1.03125 6.15625 -1.03125 C 6.914062 -1.03125 7.445312 -1.273438 7.75 -1.765625 C 8.050781 -2.265625 8.203125 -3 8.203125 -3.96875 C 8.203125 -4.195312 8.191406 -4.515625 8.171875 -4.921875 C 8.160156 -5.335938 8.144531 -5.769531 8.125 -6.21875 C 8.101562 -6.675781 8.082031 -7.101562 8.0625 -7.5 C 8.039062 -7.90625 8.03125 -8.203125 8.03125 -8.390625 C 8.03125 -8.628906 7.976562 -8.796875 7.875 -8.890625 C 7.769531 -8.984375 7.65625 -9.054688 7.53125 -9.109375 C 7.414062 -9.171875 7.304688 -9.238281 7.203125 -9.3125 C 7.097656 -9.382812 7.046875 -9.519531 7.046875 -9.71875 C 7.046875 -9.769531 7.050781 -9.828125 7.0625 -9.890625 C 7.082031 -9.953125 7.117188 -10.007812 7.171875 -10.0625 C 7.222656 -10.113281 7.296875 -10.15625 7.390625 -10.1875 C 7.484375 -10.21875 7.617188 -10.234375 7.796875 -10.234375 L 9.6875 -10.234375 C 10.019531 -10.234375 10.226562 -10.175781 10.3125 -10.0625 C 10.394531 -9.957031 10.4375 -9.84375 10.4375 -9.71875 C 10.4375 -9.519531 10.394531 -9.382812 10.3125 -9.3125 C 10.226562 -9.25 10.128906 -9.191406 10.015625 -9.140625 C 9.910156 -9.097656 9.816406 -9.039062 9.734375 -8.96875 C 9.648438 -8.894531 9.609375 -8.753906 9.609375 -8.546875 C 9.609375 -8.222656 9.613281 -7.867188 9.625 -7.484375 C 9.644531 -7.097656 9.664062 -6.703125 9.6875 -6.296875 C 9.707031 -5.898438 9.722656 -5.515625 9.734375 -5.140625 C 9.753906 -4.773438 9.765625 -4.445312 9.765625 -4.15625 C 9.765625 -3.507812 9.707031 -2.914062 9.59375 -2.375 C 9.476562 -1.84375 9.257812 -1.382812 8.9375 -1 C 8.613281 -0.613281 8.15625 -0.3125 7.5625 -0.09375 C 6.976562 0.113281 6.210938 0.21875 5.265625 0.21875 C 4.484375 0.21875 3.804688 0.140625 3.234375 -0.015625 C 2.671875 -0.171875 2.203125 -0.429688 1.828125 -0.796875 C 1.453125 -1.160156 1.171875 -1.632812 0.984375 -2.21875 C 0.804688 -2.8125 0.71875 -3.53125 0.71875 -4.375 C 0.71875 -4.6875 0.722656 -5.039062 0.734375 -5.4375 C 0.753906 -5.84375 0.773438 -6.242188 0.796875 -6.640625 C 0.828125 -7.035156 0.847656 -7.410156 0.859375 -7.765625 C 0.878906 -8.117188 0.890625 -8.394531 0.890625 -8.59375 C 0.890625 -8.789062 0.851562 -8.925781 0.78125 -9 C 0.707031 -9.082031 0.625 -9.144531 0.53125 -9.1875 C 0.445312 -9.226562 0.367188 -9.273438 0.296875 -9.328125 C 0.222656 -9.378906 0.1875 -9.488281 0.1875 -9.65625 C 0.1875 -9.832031 0.25 -9.972656 0.375 -10.078125 C 0.5 -10.179688 0.785156 -10.234375 1.234375 -10.234375 Z M 4.28125 -10.234375 "/></g></g><g style="fill:#ecbd39;fill-opacity:1;"><g transform="translate(57.05503, 26.078952)"><path style="stroke:none" d="M 0.09375 -5.890625 C 0.09375 -6.003906 0.15625 -6.109375 0.28125 -6.203125 C 0.40625 -6.304688 0.5625 -6.394531 0.75 -6.46875 C 0.945312 -6.550781 1.15625 -6.617188 1.375 -6.671875 C 1.601562 -6.734375 1.816406 -6.78125 2.015625 -6.8125 C 2.222656 -6.851562 2.40625 -6.882812 2.5625 -6.90625 C 2.71875 -6.925781 2.816406 -6.9375 2.859375 -6.9375 C 3.003906 -6.9375 3.117188 -6.914062 3.203125 -6.875 C 3.285156 -6.84375 3.359375 -6.789062 3.421875 -6.71875 C 3.484375 -6.644531 3.535156 -6.5625 3.578125 -6.46875 C 3.617188 -6.375 3.660156 -6.269531 3.703125 -6.15625 C 3.960938 -6.414062 4.269531 -6.609375 4.625 -6.734375 C 4.976562 -6.867188 5.351562 -6.9375 5.75 -6.9375 C 6.25 -6.9375 6.707031 -6.84375 7.125 -6.65625 C 7.539062 -6.46875 7.894531 -6.210938 8.1875 -5.890625 C 8.488281 -5.566406 8.71875 -5.191406 8.875 -4.765625 C 9.039062 -4.335938 9.125 -3.878906 9.125 -3.390625 C 9.125 -2.890625 9.035156 -2.425781 8.859375 -2 C 8.679688 -1.582031 8.4375 -1.210938 8.125 -0.890625 C 7.8125 -0.566406 7.441406 -0.3125 7.015625 -0.125 C 6.585938 0.0507812 6.128906 0.140625 5.640625 0.140625 C 5.210938 0.140625 4.875 0.0625 4.625 -0.09375 C 4.382812 -0.25 4.265625 -0.460938 4.265625 -0.734375 C 4.265625 -0.910156 4.300781 -1.035156 4.375 -1.109375 C 4.457031 -1.179688 4.570312 -1.222656 4.71875 -1.234375 C 4.820312 -1.234375 4.941406 -1.257812 5.078125 -1.3125 C 5.210938 -1.375 5.34375 -1.476562 5.46875 -1.625 C 5.59375 -1.78125 5.695312 -1.992188 5.78125 -2.265625 C 5.875 -2.535156 5.921875 -2.878906 5.921875 -3.296875 C 5.921875 -3.628906 5.890625 -3.929688 5.828125 -4.203125 C 5.765625 -4.472656 5.679688 -4.710938 5.578125 -4.921875 C 5.472656 -5.128906 5.347656 -5.285156 5.203125 -5.390625 C 5.066406 -5.503906 4.921875 -5.5625 4.765625 -5.5625 C 4.671875 -5.5625 4.578125 -5.546875 4.484375 -5.515625 C 4.390625 -5.492188 4.300781 -5.4375 4.21875 -5.34375 C 4.144531 -5.25 4.082031 -5.113281 4.03125 -4.9375 C 3.988281 -4.757812 3.96875 -4.523438 3.96875 -4.234375 L 3.96875 0.8125 C 3.96875 1.007812 4.003906 1.148438 4.078125 1.234375 C 4.160156 1.316406 4.242188 1.382812 4.328125 1.4375 C 4.421875 1.5 4.503906 1.554688 4.578125 1.609375 C 4.648438 1.671875 4.6875 1.78125 4.6875 1.9375 C 4.6875 2.300781 4.40625 2.484375 3.84375 2.484375 L 1.03125 2.484375 C 0.46875 2.484375 0.1875 2.300781 0.1875 1.9375 C 0.1875 1.78125 0.222656 1.671875 0.296875 1.609375 C 0.367188 1.554688 0.445312 1.5 0.53125 1.4375 C 0.625 1.382812 0.707031 1.316406 0.78125 1.234375 C 0.851562 1.148438 0.890625 1.007812 0.890625 0.8125 L 0.890625 -4.65625 C 0.890625 -4.9375 0.847656 -5.128906 0.765625 -5.234375 C 0.679688 -5.335938 0.585938 -5.410156 0.484375 -5.453125 C 0.390625 -5.503906 0.300781 -5.550781 0.21875 -5.59375 C 0.132812 -5.632812 0.09375 -5.734375 0.09375 -5.890625 Z M 0.09375 -5.890625 "/></g></g><g style="fill:#ecbd39;fill-opacity:1;"><g transform="translate(66.429491, 26.078952)"><path style="stroke:none" d=""/></g></g><g clip-rule="nonzero" clip-path="url(#e16b0b6a9f)"><path style=" stroke:none;fill-rule:nonzero;fill:#014ca7;fill-opacity:1;" d="M 60.359375 24.40625 C 60.339844 24.40625 58.128906 24.386719 55.886719 22.652344 C 52.980469 20.410156 51.375 16.277344 51.21875 10.675781 L 54.867188 10.675781 C 55.238281 10.675781 55.574219 10.453125 55.714844 10.113281 C 55.855469 9.769531 55.777344 9.375 55.515625 9.113281 L 49.105469 2.707031 C 48.75 2.347656 48.171875 2.347656 47.8125 2.707031 L 41.40625 9.113281 C 41.144531 9.375 41.0625 9.769531 41.207031 10.113281 C 41.347656 10.453125 41.683594 10.675781 42.050781 10.675781 L 45.726562 10.675781 C 46.21875 25.792969 58.890625 26.238281 60.359375 26.238281 C 60.867188 26.238281 61.277344 25.828125 61.277344 25.324219 C 61.277344 24.816406 60.867188 24.40625 60.359375 24.40625 Z M 60.359375 24.40625 "/></g></g></svg>