<svg xmlns="http://www.w3.org/2000/svg" xmlns:xlink="http://www.w3.org/1999/xlink" width="400" zoomAndPan="magnify" viewBox="0 0 300 149.999998" height="200" preserveAspectRatio="xMidYMid meet" version="1.2"><defs><clipPath id="9f5337a377"><path d="M 168 5 L 267.738281 5 L 267.738281 122.089844 L 168 122.089844 Z M 168 5 "/></clipPath><clipPath id="ad3411bdca"><path d="M 170.617188 52.355469 L 233.617188 52.355469 L 233.617188 109.355469 L 170.617188 109.355469 Z M 170.617188 52.355469 "/></clipPath></defs><g id="a84849c1a5"><rect x="0" width="300" y="0" height="149.999998" style="fill:#ffffff;fill-opacity:1;stroke:none;"/><rect x="0" width="300" y="0" height="149.999998" style="fill:#ffffff;fill-opacity:1;stroke:none;"/><g clip-rule="nonzero" clip-path="url(#9f5337a377)"><path style=" stroke:none;fill-rule:nonzero;fill:#014ca7;fill-opacity:1;" d="M 263.238281 113.054688 C 263.132812 113.054688 252.269531 112.957031 241.238281 104.429688 C 226.953125 93.390625 219.0625 73.089844 218.292969 45.542969 L 236.234375 45.542969 C 238.050781 45.542969 239.699219 44.445312 240.394531 42.765625 C 241.089844 41.082031 240.703125 39.148438 239.417969 37.859375 L 207.910156 6.355469 C 206.148438 4.59375 203.304688 4.59375 201.546875 6.355469 L 170.039062 37.859375 C 168.753906 39.148438 168.359375 41.082031 169.0625 42.765625 C 169.757812 44.445312 171.402344 45.542969 173.222656 45.542969 L 191.296875 45.542969 C 193.714844 119.875 256.015625 122.058594 263.238281 122.058594 C 265.726562 122.058594 267.738281 120.042969 267.738281 117.558594 C 267.738281 115.074219 265.726562 113.054688 263.238281 113.054688 Z M 263.238281 113.054688 "/></g><g style="fill:#004aad;fill-opacity:1;"><g transform="translate(5.826945, 121.040698)"><path style="stroke:none" d="M 3.234375 -33.1875 C 3.234375 -35.664062 3.757812 -37.960938 4.8125 -40.078125 C 5.875 -42.191406 7.359375 -44.007812 9.265625 -45.53125 C 11.179688 -47.0625 13.488281 -48.265625 16.1875 -49.140625 C 18.882812 -50.023438 21.878906 -50.46875 25.171875 -50.46875 C 27.148438 -50.46875 28.945312 -50.34375 30.5625 -50.09375 C 32.175781 -49.84375 33.625 -49.550781 34.90625 -49.21875 C 36.195312 -48.882812 37.320312 -48.523438 38.28125 -48.140625 C 39.25 -47.753906 40.070312 -47.40625 40.75 -47.09375 C 41.738281 -46.644531 42.488281 -46.160156 43 -45.640625 C 43.519531 -45.117188 43.878906 -44.53125 44.078125 -43.875 C 44.285156 -43.226562 44.390625 -42.476562 44.390625 -41.625 C 44.390625 -40.769531 44.390625 -39.78125 44.390625 -38.65625 C 44.390625 -35.644531 43.265625 -34.140625 41.015625 -34.140625 C 40.160156 -34.140625 39.484375 -34.410156 38.984375 -34.953125 C 38.492188 -35.492188 38.046875 -36.15625 37.640625 -36.9375 C 37.242188 -37.726562 36.832031 -38.59375 36.40625 -39.53125 C 35.976562 -40.476562 35.398438 -41.34375 34.671875 -42.125 C 33.953125 -42.914062 33.007812 -43.582031 31.84375 -44.125 C 30.675781 -44.664062 29.171875 -44.9375 27.328125 -44.9375 C 24.628906 -44.9375 22.640625 -44.40625 21.359375 -43.34375 C 20.078125 -42.289062 19.4375 -41.046875 19.4375 -39.609375 C 19.4375 -38.347656 19.835938 -37.3125 20.640625 -36.5 C 21.453125 -35.6875 22.507812 -35 23.8125 -34.4375 C 25.113281 -33.875 26.609375 -33.378906 28.296875 -32.953125 C 29.984375 -32.523438 31.703125 -32.0625 33.453125 -31.5625 C 35.210938 -31.070312 36.9375 -30.488281 38.625 -29.8125 C 40.3125 -29.144531 41.804688 -28.289062 43.109375 -27.25 C 44.410156 -26.21875 45.46875 -24.925781 46.28125 -23.375 C 47.09375 -21.820312 47.5 -19.945312 47.5 -17.75 C 47.5 -14.550781 46.78125 -11.769531 45.34375 -9.40625 C 43.90625 -7.050781 42.046875 -5.097656 39.765625 -3.546875 C 37.492188 -1.992188 34.941406 -0.832031 32.109375 -0.0625 C 29.273438 0.695312 26.46875 1.078125 23.6875 1.078125 C 20.9375 1.078125 18.234375 0.75 15.578125 0.09375 C 12.929688 -0.550781 10.5625 -1.410156 8.46875 -2.484375 C 6.375 -3.566406 4.675781 -4.835938 3.375 -6.296875 C 2.070312 -7.765625 1.421875 -9.3125 1.421875 -10.9375 C 1.421875 -12.144531 1.820312 -13.207031 2.625 -14.125 C 3.4375 -15.050781 4.472656 -15.515625 5.734375 -15.515625 C 6.765625 -15.515625 7.617188 -15.265625 8.296875 -14.765625 C 8.972656 -14.273438 9.601562 -13.660156 10.1875 -12.921875 C 10.769531 -12.179688 11.363281 -11.382812 11.96875 -10.53125 C 12.582031 -9.675781 13.335938 -8.875 14.234375 -8.125 C 15.128906 -7.382812 16.253906 -6.765625 17.609375 -6.265625 C 18.960938 -5.773438 20.648438 -5.53125 22.671875 -5.53125 C 24.109375 -5.53125 25.363281 -5.71875 26.4375 -6.09375 C 27.519531 -6.476562 28.421875 -6.960938 29.140625 -7.546875 C 29.859375 -8.140625 30.398438 -8.804688 30.765625 -9.546875 C 31.128906 -10.285156 31.3125 -11.015625 31.3125 -11.734375 C 31.3125 -12.910156 30.90625 -13.859375 30.09375 -14.578125 C 29.28125 -15.296875 28.222656 -15.890625 26.921875 -16.359375 C 25.617188 -16.828125 24.125 -17.253906 22.4375 -17.640625 C 20.75 -18.023438 19.023438 -18.441406 17.265625 -18.890625 C 15.515625 -19.335938 13.796875 -19.898438 12.109375 -20.578125 C 10.421875 -21.253906 8.925781 -22.128906 7.625 -23.203125 C 6.320312 -24.285156 5.265625 -25.632812 4.453125 -27.25 C 3.640625 -28.875 3.234375 -30.851562 3.234375 -33.1875 Z M 3.234375 -33.1875 "/></g></g><g style="fill:#004aad;fill-opacity:1;"><g transform="translate(54.401649, 121.040698)"><path style="stroke:none" d="M 1.140625 -16.390625 C 1.140625 -19.140625 1.664062 -21.582031 2.71875 -23.71875 C 3.78125 -25.851562 5.210938 -27.640625 7.015625 -29.078125 C 8.816406 -30.515625 10.882812 -31.601562 13.21875 -32.34375 C 15.5625 -33.09375 18.015625 -33.46875 20.578125 -33.46875 C 23.003906 -33.46875 25.21875 -33.253906 27.21875 -32.828125 C 29.21875 -32.398438 30.925781 -31.8125 32.34375 -31.0625 C 33.757812 -30.320312 34.847656 -29.457031 35.609375 -28.46875 C 36.378906 -27.476562 36.765625 -26.398438 36.765625 -25.234375 C 36.765625 -23.796875 36.222656 -22.75 35.140625 -22.09375 C 34.066406 -21.445312 32.898438 -21.125 31.640625 -21.125 C 30.242188 -21.125 29.148438 -21.457031 28.359375 -22.125 C 27.578125 -22.800781 26.90625 -23.554688 26.34375 -24.390625 C 25.78125 -25.222656 25.21875 -25.972656 24.65625 -26.640625 C 24.09375 -27.316406 23.34375 -27.65625 22.40625 -27.65625 C 21.414062 -27.65625 20.554688 -27.351562 19.828125 -26.75 C 19.109375 -26.144531 18.515625 -25.3125 18.046875 -24.25 C 17.578125 -23.195312 17.226562 -21.972656 17 -20.578125 C 16.78125 -19.179688 16.671875 -17.71875 16.671875 -16.1875 C 16.671875 -14.4375 16.90625 -12.929688 17.375 -11.671875 C 17.84375 -10.410156 18.445312 -9.375 19.1875 -8.5625 C 19.9375 -7.757812 20.78125 -7.164062 21.71875 -6.78125 C 22.664062 -6.394531 23.585938 -6.203125 24.484375 -6.203125 C 25.835938 -6.203125 27.019531 -6.445312 28.03125 -6.9375 C 29.039062 -7.4375 29.953125 -7.988281 30.765625 -8.59375 C 31.578125 -9.207031 32.316406 -9.769531 32.984375 -10.28125 C 33.660156 -10.800781 34.335938 -11.0625 35.015625 -11.0625 C 35.691406 -11.0625 36.265625 -10.789062 36.734375 -10.25 C 37.203125 -9.71875 37.4375 -9.113281 37.4375 -8.4375 C 37.4375 -7.21875 36.910156 -6.054688 35.859375 -4.953125 C 34.804688 -3.859375 33.46875 -2.894531 31.84375 -2.0625 C 30.226562 -1.226562 28.453125 -0.5625 26.515625 -0.0625 C 24.578125 0.425781 22.734375 0.671875 20.984375 0.671875 C 18.460938 0.671875 16.019531 0.300781 13.65625 -0.4375 C 11.300781 -1.175781 9.1875 -2.265625 7.3125 -3.703125 C 5.445312 -5.148438 3.953125 -6.929688 2.828125 -9.046875 C 1.703125 -11.160156 1.140625 -13.609375 1.140625 -16.390625 Z M 1.140625 -16.390625 "/></g></g><g style="fill:#004aad;fill-opacity:1;"><g transform="translate(91.507323, 121.040698)"><path style="stroke:none" d="M 23.484375 -16.59375 C 22.535156 -16.59375 21.632812 -16.457031 20.78125 -16.1875 C 19.925781 -15.914062 19.160156 -15.507812 18.484375 -14.96875 C 17.804688 -14.4375 17.265625 -13.753906 16.859375 -12.921875 C 16.460938 -12.085938 16.265625 -11.085938 16.265625 -9.921875 C 16.265625 -8.742188 16.53125 -7.804688 17.0625 -7.109375 C 17.601562 -6.421875 18.328125 -6.078125 19.234375 -6.078125 C 19.679688 -6.078125 20.148438 -6.195312 20.640625 -6.4375 C 21.140625 -6.6875 21.601562 -7.179688 22.03125 -7.921875 C 22.457031 -8.671875 22.804688 -9.738281 23.078125 -11.125 C 23.347656 -12.519531 23.484375 -14.34375 23.484375 -16.59375 Z M 4.1875 -26.984375 C 4.1875 -29.015625 5.523438 -30.601562 8.203125 -31.75 C 10.878906 -32.894531 15.023438 -33.46875 20.640625 -33.46875 C 22.578125 -33.46875 24.578125 -33.332031 26.640625 -33.0625 C 28.710938 -32.789062 30.613281 -32.203125 32.34375 -31.296875 C 34.082031 -30.398438 35.515625 -29.117188 36.640625 -27.453125 C 37.765625 -25.796875 38.328125 -23.570312 38.328125 -20.78125 L 38.328125 -8.5 C 38.328125 -7.507812 38.503906 -6.773438 38.859375 -6.296875 C 39.222656 -5.828125 39.617188 -5.445312 40.046875 -5.15625 C 40.472656 -4.863281 40.863281 -4.535156 41.21875 -4.171875 C 41.582031 -3.816406 41.765625 -3.257812 41.765625 -2.5 C 41.765625 -0.832031 40.707031 0 38.59375 0 L 28 0 C 26.46875 0 25.460938 -0.253906 24.984375 -0.765625 C 24.515625 -1.285156 24.171875 -2.203125 23.953125 -3.515625 C 23.410156 -2.703125 22.753906 -2.023438 21.984375 -1.484375 C 21.222656 -0.941406 20.394531 -0.515625 19.5 -0.203125 C 18.601562 0.109375 17.671875 0.332031 16.703125 0.46875 C 15.734375 0.601562 14.800781 0.671875 13.90625 0.671875 C 11.738281 0.671875 9.878906 0.359375 8.328125 -0.265625 C 6.773438 -0.898438 5.484375 -1.722656 4.453125 -2.734375 C 3.421875 -3.742188 2.65625 -4.878906 2.15625 -6.140625 C 1.664062 -7.398438 1.421875 -8.679688 1.421875 -9.984375 C 1.421875 -12.410156 2.070312 -14.390625 3.375 -15.921875 C 4.675781 -17.453125 6.375 -18.632812 8.46875 -19.46875 C 10.5625 -20.300781 12.898438 -20.863281 15.484375 -21.15625 C 18.066406 -21.445312 20.617188 -21.59375 23.140625 -21.59375 C 23.097656 -22.894531 23 -23.960938 22.84375 -24.796875 C 22.6875 -25.628906 22.445312 -26.289062 22.125 -26.78125 C 21.8125 -27.28125 21.40625 -27.617188 20.90625 -27.796875 C 20.414062 -27.972656 19.832031 -28.0625 19.15625 -28.0625 C 18.164062 -28.0625 17.390625 -27.800781 16.828125 -27.28125 C 16.265625 -26.769531 15.691406 -26.1875 15.109375 -25.53125 C 14.523438 -24.882812 13.847656 -24.300781 13.078125 -23.78125 C 12.316406 -23.257812 11.238281 -23 9.84375 -23 C 8 -23 6.59375 -23.367188 5.625 -24.109375 C 4.664062 -24.859375 4.1875 -25.816406 4.1875 -26.984375 Z M 4.1875 -26.984375 "/></g></g><g style="fill:#004aad;fill-opacity:1;"><g transform="translate(133.335525, 121.040698)"><path style="stroke:none" d="M 0.734375 -46.15625 C 0.734375 -46.914062 1.101562 -47.578125 1.84375 -48.140625 C 2.59375 -48.703125 3.800781 -49.09375 5.46875 -49.3125 C 8.164062 -49.675781 10.410156 -50.101562 12.203125 -50.59375 C 14.003906 -51.09375 15.3125 -51.320312 16.125 -51.28125 C 16.394531 -51.28125 16.71875 -51.234375 17.09375 -51.140625 C 17.476562 -51.046875 17.847656 -50.804688 18.203125 -50.421875 C 18.566406 -50.046875 18.875 -49.460938 19.125 -48.671875 C 19.375 -47.890625 19.5 -46.800781 19.5 -45.40625 L 19.5 -7.6875 C 19.5 -6.882812 19.675781 -6.289062 20.03125 -5.90625 C 20.394531 -5.519531 20.800781 -5.191406 21.25 -4.921875 C 21.695312 -4.648438 22.097656 -4.367188 22.453125 -4.078125 C 22.816406 -3.785156 23 -3.300781 23 -2.625 C 23 -1.90625 22.660156 -1.285156 21.984375 -0.765625 C 21.316406 -0.253906 20.535156 0 19.640625 0 L 4.515625 0 C 3.617188 0 2.832031 -0.253906 2.15625 -0.765625 C 1.476562 -1.285156 1.140625 -1.90625 1.140625 -2.625 C 1.140625 -3.300781 1.316406 -3.785156 1.671875 -4.078125 C 2.035156 -4.367188 2.441406 -4.648438 2.890625 -4.921875 C 3.347656 -5.191406 3.753906 -5.519531 4.109375 -5.90625 C 4.472656 -6.289062 4.65625 -6.882812 4.65625 -7.6875 L 4.65625 -40.890625 C 4.65625 -41.742188 4.453125 -42.359375 4.046875 -42.734375 C 3.640625 -43.117188 3.1875 -43.4375 2.6875 -43.6875 C 2.195312 -43.9375 1.75 -44.21875 1.34375 -44.53125 C 0.9375 -44.84375 0.734375 -45.382812 0.734375 -46.15625 Z M 0.734375 -46.15625 "/></g></g><g style="fill:#004aad;fill-opacity:1;"><g transform="translate(156.273586, 121.040698)"><path style="stroke:none" d="M 22.125 -27.65625 C 21.269531 -27.65625 20.503906 -27.375 19.828125 -26.8125 C 19.160156 -26.25 18.585938 -25.492188 18.109375 -24.546875 C 17.640625 -23.609375 17.28125 -22.507812 17.03125 -21.25 C 16.789062 -19.988281 16.644531 -18.660156 16.59375 -17.265625 C 17.582031 -17.316406 18.570312 -17.5 19.5625 -17.8125 C 20.550781 -18.125 21.425781 -18.570312 22.1875 -19.15625 C 22.957031 -19.738281 23.578125 -20.445312 24.046875 -21.28125 C 24.523438 -22.113281 24.765625 -23.070312 24.765625 -24.15625 C 24.765625 -24.875 24.582031 -25.632812 24.21875 -26.4375 C 23.863281 -27.25 23.164062 -27.65625 22.125 -27.65625 Z M 1.140625 -15.921875 C 1.140625 -18.796875 1.78125 -21.320312 3.0625 -23.5 C 4.351562 -25.6875 6.019531 -27.519531 8.0625 -29 C 10.101562 -30.488281 12.40625 -31.601562 14.96875 -32.34375 C 17.539062 -33.09375 20.109375 -33.46875 22.671875 -33.46875 C 25.234375 -33.46875 27.492188 -33.171875 29.453125 -32.578125 C 31.410156 -31.992188 33.050781 -31.226562 34.375 -30.28125 C 35.695312 -29.34375 36.695312 -28.273438 37.375 -27.078125 C 38.050781 -25.890625 38.390625 -24.710938 38.390625 -23.546875 C 38.390625 -21.523438 37.78125 -19.835938 36.5625 -18.484375 C 35.351562 -17.140625 33.757812 -16.023438 31.78125 -15.140625 C 29.800781 -14.265625 27.539062 -13.546875 25 -12.984375 C 22.457031 -12.421875 19.859375 -11.914062 17.203125 -11.46875 C 17.703125 -9.894531 18.578125 -8.535156 19.828125 -7.390625 C 21.085938 -6.242188 22.6875 -5.671875 24.625 -5.671875 C 26.25 -5.671875 27.617188 -5.953125 28.734375 -6.515625 C 29.859375 -7.078125 30.847656 -7.691406 31.703125 -8.359375 C 32.554688 -9.035156 33.332031 -9.65625 34.03125 -10.21875 C 34.726562 -10.78125 35.460938 -11.0625 36.234375 -11.0625 C 36.859375 -11.0625 37.453125 -10.867188 38.015625 -10.484375 C 38.578125 -10.109375 38.859375 -9.535156 38.859375 -8.765625 C 38.859375 -7.597656 38.304688 -6.453125 37.203125 -5.328125 C 36.109375 -4.203125 34.703125 -3.1875 32.984375 -2.28125 C 31.273438 -1.382812 29.363281 -0.664062 27.25 -0.125 C 25.144531 0.40625 23.078125 0.671875 21.046875 0.671875 C 18.578125 0.671875 16.148438 0.320312 13.765625 -0.375 C 11.378906 -1.070312 9.253906 -2.113281 7.390625 -3.5 C 5.523438 -4.894531 4.015625 -6.628906 2.859375 -8.703125 C 1.710938 -10.773438 1.140625 -13.179688 1.140625 -15.921875 Z M 1.140625 -15.921875 "/></g></g><g style="fill:#ecbd39;fill-opacity:1;"><g transform="translate(196.084941, 121.040698)"><path style="stroke:none" d="M 20.640625 -49.390625 C 21.585938 -49.390625 22.34375 -49.3125 22.90625 -49.15625 C 23.46875 -49 23.882812 -48.785156 24.15625 -48.515625 C 24.425781 -48.242188 24.601562 -47.9375 24.6875 -47.59375 C 24.78125 -47.257812 24.828125 -46.910156 24.828125 -46.546875 C 24.828125 -45.785156 24.632812 -45.28125 24.25 -45.03125 C 23.875 -44.789062 23.445312 -44.566406 22.96875 -44.359375 C 22.5 -44.160156 22.050781 -43.890625 21.625 -43.546875 C 21.195312 -43.210938 20.960938 -42.570312 20.921875 -41.625 C 20.867188 -41 20.796875 -40.125 20.703125 -39 C 20.617188 -37.875 20.53125 -36.625 20.4375 -35.25 C 20.351562 -33.875 20.265625 -32.429688 20.171875 -30.921875 C 20.078125 -29.421875 19.984375 -27.992188 19.890625 -26.640625 C 19.804688 -25.296875 19.742188 -24.09375 19.703125 -23.03125 C 19.660156 -21.976562 19.640625 -21.207031 19.640625 -20.71875 C 19.640625 -18.738281 19.757812 -16.800781 20 -14.90625 C 20.25 -13.019531 20.734375 -11.34375 21.453125 -9.875 C 22.171875 -8.414062 23.191406 -7.238281 24.515625 -6.34375 C 25.847656 -5.445312 27.570312 -5 29.6875 -5 C 33.375 -5 35.945312 -6.1875 37.40625 -8.5625 C 38.875 -10.945312 39.609375 -14.476562 39.609375 -19.15625 C 39.609375 -20.238281 39.5625 -21.78125 39.46875 -23.78125 C 39.375 -25.78125 39.28125 -27.867188 39.1875 -30.046875 C 39.101562 -32.234375 39.003906 -34.289062 38.890625 -36.21875 C 38.785156 -38.15625 38.734375 -39.578125 38.734375 -40.484375 C 38.734375 -41.648438 38.484375 -42.457031 37.984375 -42.90625 C 37.492188 -43.351562 36.953125 -43.710938 36.359375 -43.984375 C 35.773438 -44.253906 35.234375 -44.566406 34.734375 -44.921875 C 34.242188 -45.285156 34 -45.941406 34 -46.890625 C 34 -47.160156 34.03125 -47.441406 34.09375 -47.734375 C 34.164062 -48.023438 34.328125 -48.296875 34.578125 -48.546875 C 34.828125 -48.796875 35.1875 -49 35.65625 -49.15625 C 36.125 -49.3125 36.765625 -49.390625 37.578125 -49.390625 L 46.75 -49.390625 C 48.320312 -49.390625 49.3125 -49.117188 49.71875 -48.578125 C 50.125 -48.035156 50.328125 -47.472656 50.328125 -46.890625 C 50.328125 -45.941406 50.125 -45.300781 49.71875 -44.96875 C 49.3125 -44.632812 48.847656 -44.351562 48.328125 -44.125 C 47.816406 -43.894531 47.359375 -43.597656 46.953125 -43.234375 C 46.546875 -42.878906 46.34375 -42.207031 46.34375 -41.21875 C 46.34375 -39.6875 46.375 -37.988281 46.4375 -36.125 C 46.507812 -34.257812 46.601562 -32.359375 46.71875 -30.421875 C 46.832031 -28.492188 46.921875 -26.628906 46.984375 -24.828125 C 47.054688 -23.023438 47.09375 -21.425781 47.09375 -20.03125 C 47.09375 -16.9375 46.820312 -14.09375 46.28125 -11.5 C 45.738281 -8.914062 44.691406 -6.691406 43.140625 -4.828125 C 41.585938 -2.960938 39.382812 -1.507812 36.53125 -0.46875 C 33.675781 0.5625 29.957031 1.078125 25.375 1.078125 C 21.632812 1.078125 18.390625 0.695312 15.640625 -0.0625 C 12.898438 -0.832031 10.617188 -2.09375 8.796875 -3.84375 C 6.984375 -5.601562 5.632812 -7.898438 4.75 -10.734375 C 3.875 -13.566406 3.4375 -17.03125 3.4375 -21.125 C 3.4375 -22.601562 3.476562 -24.304688 3.5625 -26.234375 C 3.65625 -28.171875 3.757812 -30.09375 3.875 -32 C 3.988281 -33.914062 4.085938 -35.726562 4.171875 -37.4375 C 4.265625 -39.15625 4.3125 -40.507812 4.3125 -41.5 C 4.3125 -42.4375 4.128906 -43.082031 3.765625 -43.4375 C 3.410156 -43.800781 3.019531 -44.082031 2.59375 -44.28125 C 2.164062 -44.488281 1.769531 -44.726562 1.40625 -45 C 1.050781 -45.269531 0.875 -45.785156 0.875 -46.546875 C 0.875 -47.453125 1.175781 -48.148438 1.78125 -48.640625 C 2.394531 -49.140625 3.78125 -49.390625 5.9375 -49.390625 Z M 20.640625 -49.390625 "/></g></g><g style="fill:#ecbd39;fill-opacity:1;"><g transform="translate(247.358228, 121.040698)"><path style="stroke:none" d="M 0.46875 -28.40625 C 0.46875 -28.988281 0.769531 -29.515625 1.375 -29.984375 C 1.988281 -30.460938 2.753906 -30.890625 3.671875 -31.265625 C 4.597656 -31.648438 5.597656 -31.976562 6.671875 -32.25 C 7.753906 -32.519531 8.789062 -32.742188 9.78125 -32.921875 C 10.769531 -33.097656 11.632812 -33.234375 12.375 -33.328125 C 13.125 -33.421875 13.609375 -33.46875 13.828125 -33.46875 C 14.503906 -33.46875 15.046875 -33.375 15.453125 -33.1875 C 15.859375 -33.007812 16.207031 -32.75 16.5 -32.40625 C 16.789062 -32.070312 17.035156 -31.671875 17.234375 -31.203125 C 17.441406 -30.734375 17.65625 -30.226562 17.875 -29.6875 C 19.132812 -30.945312 20.617188 -31.890625 22.328125 -32.515625 C 24.035156 -33.148438 25.835938 -33.46875 27.734375 -33.46875 C 30.160156 -33.46875 32.375 -33.015625 34.375 -32.109375 C 36.375 -31.210938 38.09375 -29.988281 39.53125 -28.4375 C 40.976562 -26.882812 42.09375 -25.070312 42.875 -23 C 43.664062 -20.9375 44.0625 -18.710938 44.0625 -16.328125 C 44.0625 -13.941406 43.632812 -11.722656 42.78125 -9.671875 C 41.925781 -7.628906 40.734375 -5.832031 39.203125 -4.28125 C 37.671875 -2.726562 35.878906 -1.515625 33.828125 -0.640625 C 31.785156 0.234375 29.570312 0.671875 27.1875 0.671875 C 25.125 0.671875 23.503906 0.300781 22.328125 -0.4375 C 21.160156 -1.175781 20.578125 -2.222656 20.578125 -3.578125 C 20.578125 -4.390625 20.765625 -4.972656 21.140625 -5.328125 C 21.523438 -5.691406 22.054688 -5.894531 22.734375 -5.9375 C 23.273438 -5.9375 23.867188 -6.082031 24.515625 -6.375 C 25.171875 -6.664062 25.800781 -7.171875 26.40625 -7.890625 C 27.019531 -8.609375 27.53125 -9.617188 27.9375 -10.921875 C 28.34375 -12.234375 28.546875 -13.898438 28.546875 -15.921875 C 28.546875 -17.492188 28.394531 -18.941406 28.09375 -20.265625 C 27.800781 -21.597656 27.40625 -22.757812 26.90625 -23.75 C 26.414062 -24.738281 25.832031 -25.503906 25.15625 -26.046875 C 24.488281 -26.585938 23.769531 -26.859375 23 -26.859375 C 22.550781 -26.859375 22.101562 -26.789062 21.65625 -26.65625 C 21.207031 -26.519531 20.789062 -26.222656 20.40625 -25.765625 C 20.019531 -25.316406 19.710938 -24.664062 19.484375 -23.8125 C 19.265625 -22.957031 19.15625 -21.832031 19.15625 -20.4375 L 19.15625 3.90625 C 19.15625 4.851562 19.332031 5.53125 19.6875 5.9375 C 20.050781 6.34375 20.445312 6.679688 20.875 6.953125 C 21.300781 7.222656 21.695312 7.503906 22.0625 7.796875 C 22.425781 8.085938 22.609375 8.613281 22.609375 9.375 C 22.609375 11.132812 21.253906 12.015625 18.546875 12.015625 L 5 12.015625 C 2.25 12.015625 0.875 11.132812 0.875 9.375 C 0.875 8.613281 1.050781 8.085938 1.40625 7.796875 C 1.769531 7.503906 2.164062 7.222656 2.59375 6.953125 C 3.019531 6.679688 3.410156 6.34375 3.765625 5.9375 C 4.128906 5.53125 4.3125 4.851562 4.3125 3.90625 L 4.3125 -22.46875 C 4.3125 -23.8125 4.109375 -24.742188 3.703125 -25.265625 C 3.304688 -25.785156 2.867188 -26.144531 2.390625 -26.34375 C 1.921875 -26.550781 1.484375 -26.753906 1.078125 -26.953125 C 0.671875 -27.148438 0.46875 -27.632812 0.46875 -28.40625 Z M 0.46875 -28.40625 "/></g></g><g style="fill:#ecbd39;fill-opacity:1;"><g transform="translate(292.567492, 121.040698)"><path style="stroke:none" d=""/></g></g><g clip-rule="nonzero" clip-path="url(#ad3411bdca)"><path style=" stroke:none;fill-rule:nonzero;fill:#014ca7;fill-opacity:1;" d="M 263.238281 112.847656 C 263.132812 112.847656 252.269531 112.75 241.238281 104.21875 C 226.953125 93.183594 219.0625 72.878906 218.292969 45.335938 L 236.234375 45.335938 C 238.054688 45.335938 239.699219 44.238281 240.394531 42.558594 C 241.089844 40.875 240.703125 38.9375 239.417969 37.652344 L 207.910156 6.144531 C 206.152344 4.386719 203.304688 4.386719 201.546875 6.144531 L 170.039062 37.652344 C 168.753906 38.9375 168.363281 40.875 169.0625 42.558594 C 169.757812 44.238281 171.40625 45.335938 173.222656 45.335938 L 191.296875 45.335938 C 193.714844 119.667969 256.015625 121.847656 263.238281 121.847656 C 265.730469 121.847656 267.742188 119.832031 267.742188 117.347656 C 267.742188 114.863281 265.730469 112.847656 263.238281 112.847656 Z M 263.238281 112.847656 "/></g></g></svg>